<svg viewBox="0 0 47 35" fill="none" xmlns="http://www.w3.org/2000/svg">
<path d="M0 2.91667C0 1.30612 1.31545 0 2.9375 0H38.1875C39.8123 0 41.125 1.30612 41.125 2.91667C41.125 4.52995 39.8123 5.83333 38.1875 5.83333H2.9375C1.31545 5.83333 0 4.52995 0 2.91667ZM5.875 17.5C5.875 15.8867 7.19045 14.5833 8.8125 14.5833H44.0625C45.6873 14.5833 47 15.8867 47 17.5C47 19.1133 45.6873 20.4167 44.0625 20.4167H8.8125C7.19045 20.4167 5.875 19.1133 5.875 17.5ZM38.1875 35H2.9375C1.31545 35 0 33.6966 0 32.0833C0 30.4701 1.31545 29.1667 2.9375 29.1667H38.1875C39.8123 29.1667 41.125 30.4701 41.125 32.0833C41.125 33.6966 39.8123 35 38.1875 35Z" fill="black"/>
</svg>
