<svg viewBox="0 0 18 20" fill="none" xmlns="http://www.w3.org/2000/svg">
<path d="M13.6655 11.782L12.9995 11.186V6C12.9995 4.93913 12.5781 3.92172 11.8279 3.17157C11.0778 2.42143 10.0604 2 8.99952 2C7.93865 2 6.92124 2.42143 6.17109 3.17157C5.42094 3.92172 4.99952 4.93913 4.99952 6V11.186L4.33352 11.782C3.36706 12.6445 2.65938 13.7586 2.28952 15H15.7095C15.3396 13.7586 14.632 12.6445 13.6655 11.782ZM11.9995 17C11.9995 17.7956 11.6834 18.5587 11.1208 19.1213C10.5582 19.6839 9.79517 20 8.99952 20C8.20387 20 7.44081 19.6839 6.8782 19.1213C6.31559 18.5587 5.99952 17.7956 5.99952 17H-0.000483108C-0.00184258 15.7335 0.264755 14.4811 0.781798 13.325C1.29884 12.1689 2.05463 11.1353 2.99952 10.292V6C2.99952 4.4087 3.63166 2.88258 4.75688 1.75736C5.88209 0.632141 7.40822 0 8.99952 0C10.5908 0 12.1169 0.632141 13.2422 1.75736C14.3674 2.88258 14.9995 4.4087 14.9995 6V10.292C15.9444 11.1353 16.7002 12.1689 17.2172 13.325C17.7343 14.4811 18.0009 15.7335 17.9995 17H11.9995ZM8.99952 18C9.26473 18 9.51909 17.8946 9.70662 17.7071C9.89416 17.5196 9.99952 17.2652 9.99952 17H7.99952C7.99952 17.2652 8.10487 17.5196 8.29241 17.7071C8.47995 17.8946 8.7343 18 8.99952 18Z" fill="black"/>
</svg>
