<svg width="34" height="28" viewBox="0 0 34 28" fill="none" xmlns="http://www.w3.org/2000/svg">
<path d="M31 28H3C1.3 28 0 26.7 0 25V7.00001C0 5.30001 1.3 4.00001 3 4.00001H9C9.2 4.00001 9.5 3.80001 9.6 3.70001L10.7 1.50001C11.1 0.700006 12.1 0.100006 13 0.100006H21C21.9 0.100006 22.9 0.700006 23.3 1.50001L24.4 3.70001C24.5 3.90001 24.8 4.00001 25 4.00001H31C32.7 4.00001 34 5.30001 34 7.00001V25C34 26.7 32.7 28 31 28V28ZM3 6.00001C2.4 6.00001 2 6.40001 2 7.00001V25C2 25.6 2.4 26 3 26H31C31.6 26 32 25.6 32 25V7.00001C32 6.40001 31.6 6.00001 31 6.00001H25C24.1 6.00001 23.1 5.40001 22.7 4.60001L21.6 2.40001C21.5 2.20001 21.2 2.00001 21 2.00001H13C12.8 2.00001 12.5 2.20001 12.4 2.30001L11.3 4.50001C10.9 5.40001 9.9 6.00001 9 6.00001H3V6.00001Z" fill="white"/>
<path d="M17 24C12 24 8 20 8 15C8 10 12 6 17 6C22 6 26 10 26 15C26 20 22 24 17 24ZM17 8C13.1 8 10 11.1 10 15C10 18.9 13.1 22 17 22C20.9 22 24 18.9 24 15C24 11.1 20.9 8 17 8Z" fill="white"/>
<path d="M27 9C27.5523 9 28 8.55228 28 8C28 7.44772 27.5523 7 27 7C26.4477 7 26 7.44772 26 8C26 8.55228 26.4477 9 27 9Z" fill="white"/>
<path d="M4 2H8V3H4V2ZM17 11V10C14.2 10 12 12.2 12 15H13C13 12.8 14.8 11 17 11Z" fill="white"/>
</svg>
