<svg viewBox="0 0 52 52" fill="currentColor" xmlns="http://www.w3.org/2000/svg">
<path d="M1.45366 1.45366C2.38472 0.522881 3.64733 0 4.96385 0C6.28037 0 7.54299 0.522881 8.47405 1.45366L26.03 19.0096L43.5859 1.45366C44.5223 0.54926 45.7764 0.0488247 47.0782 0.0601369C48.38 0.0714491 49.6253 0.593604 50.5458 1.51414C51.4663 2.43467 51.9885 3.67994 51.9998 4.98172C52.0111 6.2835 51.5107 7.53765 50.6063 8.47405L33.0504 26.03L50.6063 43.5859C51.5107 44.5223 52.0111 45.7764 51.9998 47.0782C51.9885 48.38 51.4663 49.6253 50.5458 50.5458C49.6253 51.4663 48.38 51.9885 47.0782 51.9998C45.7764 52.0111 44.5223 51.5107 43.5859 50.6063L26.03 33.0504L8.47405 50.6063C7.53765 51.5107 6.2835 52.0111 4.98172 51.9998C3.67994 51.9885 2.43467 51.4663 1.51414 50.5458C0.593604 49.6253 0.0714491 48.38 0.0601369 47.0782C0.0488247 45.7764 0.54926 44.5223 1.45366 43.5859L19.0096 26.03L1.45366 8.47405C0.522881 7.54299 0 6.28037 0 4.96385C0 3.64733 0.522881 2.38472 1.45366 1.45366V1.45366Z" />
</svg>
