<svg viewBox="0 0 219 37" fill="none" xmlns="http://www.w3.org/2000/svg">
<path d="M26.0909 12C25.7159 10.8523 25.2216 9.82386 24.608 8.91477C24.0057 7.99432 23.2841 7.21023 22.4432 6.5625C21.6136 5.91477 20.6705 5.42045 19.6136 5.07954C18.5568 4.73864 17.3977 4.56818 16.1364 4.56818C14.0682 4.56818 12.1875 5.10227 10.4943 6.17045C8.80114 7.23864 7.45455 8.8125 6.45455 10.892C5.45455 12.9716 4.95455 15.5227 4.95455 18.5455C4.95455 21.5682 5.46023 24.1193 6.47159 26.1989C7.48295 28.2784 8.85227 29.8523 10.5795 30.9205C12.3068 31.9886 14.25 32.5227 16.4091 32.5227C18.4091 32.5227 20.1705 32.0966 21.6932 31.2443C23.2273 30.3807 24.4205 29.1648 25.2727 27.5966C26.1364 26.017 26.5682 24.1591 26.5682 22.0227L27.8636 22.2955H17.3636V18.5455H30.6591V22.2955C30.6591 25.1705 30.0455 27.6705 28.8182 29.7955C27.6023 31.9205 25.9205 33.5682 23.7727 34.7386C21.6364 35.8977 19.1818 36.4773 16.4091 36.4773C13.3182 36.4773 10.6023 35.75 8.26136 34.2955C5.93182 32.8409 4.11364 30.7727 2.80682 28.0909C1.51136 25.4091 0.863636 22.2273 0.863636 18.5455C0.863636 15.7841 1.23295 13.3011 1.97159 11.0966C2.72159 8.88068 3.77841 6.99432 5.14205 5.4375C6.50568 3.88068 8.11932 2.6875 9.98295 1.85795C11.8466 1.02841 13.8977 0.613635 16.1364 0.613635C17.9773 0.613635 19.6932 0.892044 21.2841 1.44886C22.8864 1.99432 24.3125 2.77273 25.5625 3.78409C26.8239 4.78409 27.875 5.98295 28.7159 7.38068C29.5568 8.76705 30.1364 10.3068 30.4545 12H26.0909Z" fill="#285AC4"/>
<path d="M71.2701 12H67.0428C66.7928 10.7841 66.3553 9.71591 65.7303 8.79545C65.1166 7.875 64.3666 7.10227 63.4803 6.47727C62.6053 5.84091 61.6337 5.36364 60.5655 5.04545C59.4973 4.72727 58.3837 4.56818 57.2246 4.56818C55.111 4.56818 53.1962 5.10227 51.4803 6.17045C49.7757 7.23864 48.4178 8.8125 47.4064 10.892C46.4064 12.9716 45.9064 15.5227 45.9064 18.5455C45.9064 21.5682 46.4064 24.1193 47.4064 26.1989C48.4178 28.2784 49.7757 29.8523 51.4803 30.9205C53.1962 31.9886 55.111 32.5227 57.2246 32.5227C58.3837 32.5227 59.4973 32.3636 60.5655 32.0455C61.6337 31.7273 62.6053 31.2557 63.4803 30.6307C64.3666 29.9943 65.1166 29.2159 65.7303 28.2955C66.3553 27.3636 66.7928 26.2955 67.0428 25.0909H71.2701C70.9519 26.875 70.3723 28.4716 69.5314 29.8807C68.6905 31.2898 67.6451 32.4886 66.3951 33.4773C65.1451 34.4545 63.7416 35.1989 62.1848 35.7102C60.6394 36.2216 58.986 36.4773 57.2246 36.4773C54.2473 36.4773 51.5996 35.75 49.2814 34.2955C46.9632 32.8409 45.1394 30.7727 43.8098 28.0909C42.4803 25.4091 41.8155 22.2273 41.8155 18.5455C41.8155 14.8636 42.4803 11.6818 43.8098 9C45.1394 6.31818 46.9632 4.25 49.2814 2.79545C51.5996 1.34091 54.2473 0.613635 57.2246 0.613635C58.986 0.613635 60.6394 0.869317 62.1848 1.38068C63.7416 1.89205 65.1451 2.64205 66.3951 3.63068C67.6451 4.60795 68.6905 5.80114 69.5314 7.21023C70.3723 8.60795 70.9519 10.2045 71.2701 12ZM93.8128 36.5455C91.2901 36.5455 89.114 35.9886 87.2844 34.875C85.4662 33.75 84.0628 32.1818 83.0742 30.1705C82.0969 28.1477 81.6083 25.7955 81.6083 23.1136C81.6083 20.4318 82.0969 18.0682 83.0742 16.0227C84.0628 13.9659 85.4378 12.3636 87.1992 11.2159C88.9719 10.0568 91.0401 9.47727 93.4037 9.47727C94.7674 9.47727 96.114 9.70455 97.4435 10.1591C98.7731 10.6136 99.9833 11.3523 101.074 12.375C102.165 13.3864 103.034 14.7273 103.682 16.3977C104.33 18.0682 104.654 20.125 104.654 22.5682V24.2727H84.4719V20.7955H100.563C100.563 19.3182 100.267 18 99.6765 16.8409C99.0969 15.6818 98.2674 14.767 97.1878 14.0966C96.1197 13.4261 94.8583 13.0909 93.4037 13.0909C91.8015 13.0909 90.4151 13.4886 89.2447 14.2841C88.0856 15.0682 87.1935 16.0909 86.5685 17.3523C85.9435 18.6136 85.631 19.9659 85.631 21.4091V23.7273C85.631 25.7045 85.9719 27.3807 86.6537 28.7557C87.3469 30.1193 88.3072 31.1591 89.5344 31.875C90.7617 32.5795 92.1878 32.9318 93.8128 32.9318C94.8697 32.9318 95.8242 32.7841 96.6765 32.4886C97.5401 32.1818 98.2844 31.7273 98.9094 31.125C99.5344 30.5114 100.017 29.75 100.358 28.8409L104.245 29.9318C103.836 31.25 103.148 32.4091 102.182 33.4091C101.216 34.3977 100.023 35.1705 98.6026 35.7273C97.1822 36.2727 95.5856 36.5455 93.8128 36.5455ZM120.076 20.25V36H116.053V9.81818H119.939V13.9091H120.28C120.894 12.5795 121.826 11.5114 123.076 10.7045C124.326 9.88636 125.939 9.47727 127.917 9.47727C129.689 9.47727 131.241 9.84091 132.57 10.5682C133.9 11.2841 134.934 12.375 135.672 13.8409C136.411 15.2955 136.78 17.1364 136.78 19.3636V36H132.758V19.6364C132.758 17.5795 132.224 15.9773 131.155 14.8295C130.087 13.6705 128.621 13.0909 126.758 13.0909C125.474 13.0909 124.326 13.3693 123.314 13.9261C122.314 14.483 121.525 15.2955 120.945 16.3636C120.366 17.4318 120.076 18.7273 120.076 20.25ZM160.798 9.81818V13.2273H147.229V9.81818H160.798ZM151.184 3.54545H155.207V28.5C155.207 29.6364 155.371 30.4886 155.701 31.0568C156.042 31.6136 156.474 31.9886 156.996 32.1818C157.531 32.3636 158.093 32.4545 158.684 32.4545C159.127 32.4545 159.491 32.4318 159.775 32.3864C160.059 32.3295 160.286 32.2841 160.457 32.25L161.275 35.8636C161.002 35.9659 160.621 36.0682 160.133 36.1705C159.644 36.2841 159.025 36.3409 158.275 36.3409C157.138 36.3409 156.025 36.0966 154.934 35.608C153.854 35.1193 152.957 34.375 152.241 33.375C151.536 32.375 151.184 31.1136 151.184 29.5909V3.54545ZM182.825 36.5455C180.302 36.5455 178.126 35.9886 176.296 34.875C174.478 33.75 173.075 32.1818 172.086 30.1705C171.109 28.1477 170.62 25.7955 170.62 23.1136C170.62 20.4318 171.109 18.0682 172.086 16.0227C173.075 13.9659 174.45 12.3636 176.211 11.2159C177.984 10.0568 180.052 9.47727 182.416 9.47727C183.779 9.47727 185.126 9.70455 186.455 10.1591C187.785 10.6136 188.995 11.3523 190.086 12.375C191.177 13.3864 192.046 14.7273 192.694 16.3977C193.342 18.0682 193.666 20.125 193.666 22.5682V24.2727H173.484V20.7955H189.575C189.575 19.3182 189.279 18 188.688 16.8409C188.109 15.6818 187.279 14.767 186.2 14.0966C185.132 13.4261 183.87 13.0909 182.416 13.0909C180.813 13.0909 179.427 13.4886 178.257 14.2841C177.097 15.0682 176.205 16.0909 175.58 17.3523C174.955 18.6136 174.643 19.9659 174.643 21.4091V23.7273C174.643 25.7045 174.984 27.3807 175.666 28.7557C176.359 30.1193 177.319 31.1591 178.546 31.875C179.774 32.5795 181.2 32.9318 182.825 32.9318C183.882 32.9318 184.836 32.7841 185.688 32.4886C186.552 32.1818 187.296 31.7273 187.921 31.125C188.546 30.5114 189.029 29.75 189.37 28.8409L193.257 29.9318C192.847 31.25 192.16 32.4091 191.194 33.4091C190.228 34.3977 189.035 35.1705 187.614 35.7273C186.194 36.2727 184.597 36.5455 182.825 36.5455ZM205.065 36V9.81818H208.951V13.7727H209.224C209.701 12.4773 210.565 11.4261 211.815 10.6193C213.065 9.8125 214.474 9.40909 216.042 9.40909C216.338 9.40909 216.707 9.41477 217.15 9.42614C217.593 9.4375 217.929 9.45455 218.156 9.47727V13.5682C218.019 13.5341 217.707 13.483 217.218 13.4148C216.741 13.3352 216.235 13.2955 215.701 13.2955C214.429 13.2955 213.292 13.5625 212.292 14.0966C211.304 14.6193 210.519 15.3466 209.94 16.2784C209.372 17.1989 209.088 18.25 209.088 19.4318V36H205.065Z" fill="black"/>
</svg>
